<?xml version="1.0" standalone="no"?>
<!DOCTYPE svg PUBLIC "-//W3C//DTD SVG 20010904//EN"
 "http://www.w3.org/TR/2001/REC-SVG-20010904/DTD/svg10.dtd">
<svg version="1.0" xmlns="http://www.w3.org/2000/svg"
 width="626.000000pt" height="626.000000pt" viewBox="0 0 626.000000 626.000000"
 preserveAspectRatio="xMidYMid meet">

<g transform="translate(0.000000,626.000000) scale(0.100000,-0.100000)"
fill="#000000" stroke="none">
<path d="M3087 5459 c-141 -32 -352 -207 -477 -397 -69 -104 -104 -180 -269
-584 l-80 -198 52 52 c90 89 250 195 279 186 5 -2 -14 -20 -44 -41 -29 -20
-71 -53 -93 -72 l-40 -36 53 26 c99 48 297 123 387 146 73 19 115 23 220 22
180 -1 221 -18 59 -25 -74 -3 -129 -10 -144 -19 -14 -7 -54 -23 -89 -34 l-64
-20 189 3 c104 2 206 0 227 -5 26 -5 -11 -8 -115 -9 -103 0 -184 -6 -248 -18
-215 -41 -477 -148 -594 -243 -85 -68 -101 -94 -101 -157 0 -130 134 -299 432
-542 84 -69 153 -128 153 -130 0 -24 -247 166 -377 290 -62 58 -115 106 -118
106 -3 0 1 -13 9 -28 8 -15 22 -63 31 -107 9 -43 18 -82 21 -87 3 -4 3 -8 0
-8 -3 0 -28 34 -56 75 -28 41 -55 75 -61 75 -22 0 -20 -36 5 -112 15 -44 26
-82 24 -84 -2 -2 -28 28 -57 67 -37 50 -57 69 -69 65 -9 -2 -31 -7 -49 -11
-38 -8 -39 -13 -49 -168 -4 -65 -10 -115 -14 -110 -4 4 -19 47 -34 95 -43 135
-44 135 -115 60 -42 -43 -63 -74 -68 -100 -4 -20 -8 -135 -8 -254 0 -119 -3
-214 -7 -210 -11 11 -48 236 -48 290 0 26 -4 53 -9 61 -18 27 -52 -116 -65
-269 l-12 -145 -24 70 -24 70 -9 -40 c-10 -47 -3 -234 13 -318 6 -33 9 -61 7
-64 -7 -6 -64 143 -78 203 -6 27 -11 103 -11 169 1 134 22 238 71 340 33 70
118 186 141 192 8 2 26 20 39 39 24 34 75 84 121 117 14 9 -1 5 -32 -10 -31
-16 -92 -59 -136 -96 -62 -53 -85 -81 -102 -120 -12 -29 -60 -128 -106 -220
-93 -185 -126 -275 -148 -404 -9 -47 -17 -88 -19 -90 -3 -2 -11 29 -19 69
l-15 73 -31 -65 c-18 -36 -32 -75 -32 -87 0 -13 -16 -40 -35 -62 -44 -48 -61
-89 -70 -166 -14 -113 -40 -177 -100 -244 -46 -52 -55 -68 -55 -100 0 -25 -9
-50 -25 -72 -13 -19 -36 -50 -49 -69 -40 -55 -59 -164 -60 -335 -1 -136 1
-155 22 -200 28 -60 64 -100 115 -126 43 -23 200 -79 307 -110 41 -12 106 -35
144 -51 65 -28 76 -30 150 -24 45 3 118 7 164 8 l83 3 26 -53 c33 -68 55 -83
112 -75 l43 6 -6 81 c-9 115 -29 244 -34 222 -3 -15 -6 -16 -13 -5 -5 9 -9
-15 -9 -63 0 -66 -3 -79 -19 -88 -25 -13 -27 -13 -45 6 -10 10 -16 33 -16 63
0 37 -7 57 -30 89 -30 42 -43 53 -35 30 3 -7 1 -20 -5 -28 -8 -12 -12 -11 -32
7 -32 28 -67 46 -108 53 -31 5 -35 9 -33 35 6 75 121 167 212 169 25 1 65 -3
88 -7 l42 -9 -5 89 c-3 48 -17 248 -31 443 -14 195 -26 395 -27 443 -1 88 -1
89 32 118 l32 29 419 0 420 0 3 220 c2 146 7 223 14 230 23 23 29 -17 34 -230
l5 -215 245 0 245 0 5 215 c3 118 9 221 14 229 21 33 31 -30 36 -234 l5 -210
421 -5 c461 -5 444 -3 470 -66 11 -27 9 -81 -11 -350 -27 -357 -47 -695 -41
-701 2 -3 31 1 63 7 71 14 116 4 184 -39 47 -29 82 -76 94 -123 6 -24 4 -28
-22 -33 -64 -15 -91 -27 -113 -50 -30 -32 -38 -31 -42 2 -3 27 -4 26 -36 -21
-23 -36 -32 -61 -32 -92 0 -40 -19 -74 -40 -74 -24 0 -40 34 -40 88 0 32 -7
65 -14 75 -13 16 -14 15 -20 -16 -7 -40 -25 -221 -26 -260 0 -17 5 -27 13 -25
6 1 25 -1 41 -5 39 -11 73 13 96 68 10 23 24 46 31 50 14 9 125 8 244 -1 64
-5 88 -3 120 11 22 9 131 48 242 85 238 81 270 96 315 150 44 50 58 99 65 214
9 154 -22 329 -72 397 -53 73 -65 95 -65 122 0 36 -21 73 -65 117 -42 41 -72
116 -86 217 -13 95 -22 118 -64 164 -19 21 -39 57 -45 81 -6 24 -22 68 -37 98
l-27 55 -9 -72 c-6 -40 -13 -73 -17 -73 -4 0 -11 21 -14 48 -18 126 -59 242
-161 452 -57 118 -106 224 -109 236 -6 21 -121 129 -183 172 -17 12 -49 29
-70 37 -22 9 -29 10 -18 3 11 -7 73 -66 138 -132 104 -104 123 -129 162 -210
62 -127 79 -205 78 -351 -1 -87 -6 -141 -21 -195 -33 -123 -87 -231 -61 -125
14 61 23 244 14 310 l-7 60 -20 -55 c-11 -30 -24 -59 -28 -63 -4 -4 -10 47
-13 115 -6 121 -25 218 -53 268 -12 22 -13 23 -14 5 -1 -51 -22 -207 -36 -275
-19 -89 -35 -114 -29 -44 13 143 14 181 5 308 -7 110 -13 144 -30 170 -27 45
-110 120 -120 110 -4 -5 -20 -47 -35 -94 -14 -47 -29 -91 -31 -99 -9 -27 -14
-3 -28 123 -8 70 -16 129 -18 131 -7 8 -83 22 -95 18 -7 -3 -33 -34 -59 -69
-25 -36 -48 -63 -50 -61 -3 2 4 25 15 50 24 57 35 111 27 133 -6 15 -10 14
-32 -7 -14 -13 -39 -48 -56 -77 -16 -29 -32 -51 -34 -49 -9 8 38 193 53 209
10 11 12 18 4 18 -6 0 -53 -39 -103 -86 -144 -134 -379 -316 -393 -303 -2 3
64 60 148 126 147 117 288 250 343 323 43 57 94 171 94 210 -1 66 -29 171 -73
268 -25 53 -85 196 -135 317 -49 121 -103 250 -120 288 -99 217 -310 443 -493
526 -76 35 -111 41 -162 30z m668 -1004 c39 -19 98 -56 131 -84 74 -60 96
-100 27 -47 -27 20 -93 63 -148 96 -55 33 -107 64 -115 70 -28 20 32 -1 105
-35z m-710 -211 c105 -4 210 -2 274 5 57 6 106 9 109 6 7 -7 -117 -64 -155
-71 -18 -3 -37 -12 -44 -20 -6 -8 -20 -14 -30 -14 -22 0 -23 -9 -7 -45 13 -29
42 -32 73 -9 14 10 31 13 56 9 30 -5 42 -2 67 20 37 31 79 33 48 3 -20 -20
-10 -23 28 -8 35 13 33 -2 -4 -33 -40 -34 -88 -48 -162 -48 -35 0 -141 1 -237
1 -191 0 -231 9 -281 65 l-25 27 25 -7 c14 -4 32 -10 40 -13 12 -4 13 -2 3 9
-17 17 -16 26 2 33 10 3 26 -7 44 -27 28 -30 31 -31 62 -20 29 11 35 10 54 -7
33 -31 71 -26 83 9 10 29 9 31 -39 55 -27 14 -54 26 -61 26 -18 0 -138 58
-138 66 0 3 10 4 23 0 12 -3 99 -9 192 -12z m506 -881 c-15 -28 -161 -166
-211 -199 -76 -51 -77 -49 -10 20 54 57 216 196 227 196 2 0 -1 -8 -6 -17z
m-792 -27 c68 -51 235 -224 192 -200 -50 28 -158 122 -209 182 -24 28 -41 52
-37 52 4 0 28 -15 54 -34z m2086 -788 c-7 -47 -53 -151 -80 -183 -20 -24 -20
-22 31 118 40 111 61 138 49 65z m-3525 -268 c38 -76 107 -165 167 -219 44
-39 51 -49 31 -42 -199 73 -348 318 -291 481 3 8 20 -28 37 -80 18 -52 43
-115 56 -140z m3720 164 c0 -72 -21 -168 -50 -223 -28 -55 -106 -126 -180
-165 -37 -20 -70 -36 -72 -36 -3 0 30 35 72 78 62 63 87 99 127 178 27 54 58
129 69 167 10 37 22 67 26 67 5 0 8 -30 8 -66z m-3104 -560 c13 -87 27 -179
31 -204 l5 -45 -82 80 c-45 44 -91 92 -102 108 l-20 27 22 38 c34 58 111 164
116 159 3 -2 16 -76 30 -163z m2475 103 c52 -68 79 -118 79 -141 0 -15 -189
-210 -196 -203 -2 2 3 41 10 88 8 46 22 137 32 202 9 64 19 117 23 117 3 0 27
-29 52 -63z m-3111 32 c11 -6 9 -8 -10 -9 -39 0 -191 -44 -255 -74 -32 -14
-60 -26 -63 -26 -15 0 67 74 101 92 66 33 182 42 227 17z m3853 -1 c35 -11
154 -105 144 -115 -2 -2 -33 11 -68 28 -35 18 -113 44 -174 59 -66 16 -102 29
-90 32 39 10 148 8 188 -4z m-3699 -43 c72 -19 116 -35 116 -44 0 -3 -40 -7
-88 -8 -94 -1 -206 -32 -365 -99 -44 -18 -82 -32 -84 -30 -2 2 21 31 52 65
108 116 222 152 369 116z m3584 -20 c67 -34 202 -149 189 -161 -3 -3 -63 17
-134 44 -162 64 -240 84 -330 86 -40 0 -73 4 -73 8 0 7 109 44 150 51 80 14
128 7 198 -28z m-3343 -142 l89 -48 -76 -7 c-92 -8 -171 -34 -299 -99 -54 -27
-104 -49 -109 -49 -19 0 0 42 34 79 17 18 51 46 76 62 38 24 41 29 22 29 -26
0 -153 -31 -222 -54 l-45 -16 35 31 c77 67 222 117 346 118 53 1 70 -4 149
-46z m3185 17 c61 -20 216 -107 207 -116 -2 -3 -45 9 -95 25 -50 17 -115 33
-144 36 l-53 6 50 -30 c28 -17 60 -41 72 -53 24 -26 54 -80 48 -86 -2 -2 -48
18 -102 46 -123 63 -204 89 -298 98 -41 4 -72 11 -69 16 3 5 29 20 57 32 29
13 61 31 72 40 28 24 168 16 255 -14z m-3130 -108 c0 -4 -20 -14 -45 -21 -90
-27 -202 -130 -221 -205 -8 -34 -24 -44 -24 -14 0 103 71 196 179 234 40 15
111 18 111 6z m2906 -18 c82 -39 144 -131 143 -214 l0 -45 -25 54 c-45 100
-107 159 -205 197 -24 9 -48 21 -54 27 -17 16 100 0 141 -19z m-2781 -23 l40
-18 -67 -6 c-83 -8 -152 -39 -235 -107 -35 -28 -63 -49 -63 -47 0 20 37 85 68
119 67 75 170 99 257 59z m2686 5 c67 -28 122 -91 144 -166 7 -22 3 -20 -41
16 -102 85 -188 123 -284 125 l-35 1 40 19 c48 22 129 25 176 5z"/>
<path d="M2545 2610 c29 -4 -48 -8 -185 -9 -129 -1 -259 -6 -288 -10 -80 -11
-87 -23 -85 -144 2 -103 52 -944 75 -1264 l12 -173 1058 0 c840 0 1058 3 1058
13 0 6 7 116 15 242 23 366 64 1092 67 1187 3 84 2 89 -25 115 l-27 28 -393 4
c-215 3 -372 8 -347 11 25 4 -187 7 -470 7 -283 0 -492 -3 -465 -7z"/>
<path d="M1775 967 c-14 -11 -17 -22 -12 -56 7 -51 30 -88 65 -104 21 -9 328
-12 1297 -12 1362 0 1315 -2 1349 50 19 28 30 87 21 114 l-6 21 -1348 0
c-1114 0 -1350 -2 -1366 -13z"/>
</g>
</svg>
